<mxfile host="app.diagrams.net" modified="2023-05-18T07:41:57.867Z" agent="Mozilla/5.0 (Windows NT 10.0; Win64; x64) AppleWebKit/537.36 (KHTML, like Gecko) Chrome/95.0.4638.69 Safari/537.36" version="21.3.2" etag="KYmbVU_GN7UkAVkG0zWv" type="github">
  <diagram name="第 1 页" id="BFyXoQLsjH9Mqdzui4bG">
    <mxGraphModel>
      <root>
        <mxCell id="0" />
        <mxCell id="1" parent="0" />
      </root>
    </mxGraphModel>
  </diagram>
</mxfile>
